<svg width="177" height="19" viewBox="0 0 177 19" fill="none" xmlns="http://www.w3.org/2000/svg">
<path d="M20.425 0.449999V18H16.15V7.475L12.225 18H8.775L4.825 7.45V18H0.55V0.449999H5.6L10.525 12.6L15.4 0.449999H20.425ZM31.7992 18.175C30.1492 18.175 28.6326 17.7917 27.2492 17.025C25.8826 16.2583 24.7909 15.1917 23.9742 13.825C23.1742 12.4417 22.7742 10.8917 22.7742 9.175C22.7742 7.45833 23.1742 5.91667 23.9742 4.55C24.7909 3.18333 25.8826 2.11667 27.2492 1.35C28.6326 0.583333 30.1492 0.2 31.7992 0.2C33.4492 0.2 34.9576 0.583333 36.3242 1.35C37.7076 2.11667 38.7909 3.18333 39.5742 4.55C40.3742 5.91667 40.7742 7.45833 40.7742 9.175C40.7742 10.8917 40.3742 12.4417 39.5742 13.825C38.7742 15.1917 37.6909 16.2583 36.3242 17.025C34.9576 17.7917 33.4492 18.175 31.7992 18.175ZM31.7992 14.275C33.1992 14.275 34.3159 13.8083 35.1492 12.875C35.9992 11.9417 36.4242 10.7083 36.4242 9.175C36.4242 7.625 35.9992 6.39167 35.1492 5.475C34.3159 4.54167 33.1992 4.075 31.7992 4.075C30.3826 4.075 29.2492 4.53333 28.3992 5.45C27.5659 6.36667 27.1492 7.60833 27.1492 9.175C27.1492 10.725 27.5659 11.9667 28.3992 12.9C29.2492 13.8167 30.3826 14.275 31.7992 14.275ZM59.6275 0.449999L53.4025 18H48.0525L41.8275 0.449999H46.3775L50.7275 13.7L55.1025 0.449999H59.6275ZM65.6893 3.875V7.425H71.4143V10.725H65.6893V14.575H72.1643V18H61.4143V0.449999H72.1643V3.875H65.6893ZM83.8896 18L80.2396 11.375H79.2146V18H74.9396V0.449999H82.1146C83.498 0.449999 84.673 0.691666 85.6396 1.175C86.623 1.65833 87.3563 2.325 87.8396 3.175C88.323 4.00833 88.5646 4.94167 88.5646 5.975C88.5646 7.14167 88.2313 8.18333 87.5646 9.1C86.9146 10.0167 85.948 10.6667 84.6646 11.05L88.7146 18H83.8896ZM79.2146 8.35H81.8646C82.648 8.35 83.2313 8.15833 83.6146 7.775C84.0146 7.39167 84.2146 6.85 84.2146 6.15C84.2146 5.48333 84.0146 4.95833 83.6146 4.575C83.2313 4.19167 82.648 4 81.8646 4H79.2146V8.35ZM95.5232 3.875V7.425H101.248V10.725H95.5232V14.575H101.998V18H91.2482V0.449999H101.998V3.875H95.5232ZM109.346 9.2C109.346 7.46667 109.721 5.925 110.471 4.575C111.221 3.20833 112.263 2.15 113.596 1.4C114.946 0.633332 116.471 0.249999 118.171 0.249999C120.255 0.249999 122.038 0.799999 123.521 1.9C125.005 3 125.996 4.5 126.496 6.4H121.796C121.446 5.66667 120.946 5.10833 120.296 4.725C119.663 4.34167 118.938 4.15 118.121 4.15C116.805 4.15 115.738 4.60833 114.921 5.525C114.105 6.44167 113.696 7.66667 113.696 9.2C113.696 10.7333 114.105 11.9583 114.921 12.875C115.738 13.7917 116.805 14.25 118.121 14.25C118.938 14.25 119.663 14.0583 120.296 13.675C120.946 13.2917 121.446 12.7333 121.796 12H126.496C125.996 13.9 125.005 15.4 123.521 16.5C122.038 17.5833 120.255 18.125 118.171 18.125C116.471 18.125 114.946 17.75 113.596 17C112.263 16.2333 111.221 15.175 110.471 13.825C109.721 12.475 109.346 10.9333 109.346 9.2ZM140.039 14.9H133.489L132.439 18H127.964L134.314 0.449999H139.264L145.614 18H141.089L140.039 14.9ZM138.939 11.6L136.764 5.175L134.614 11.6H138.939ZM156.497 18L152.847 11.375H151.822V18H147.547V0.449999H154.722C156.105 0.449999 157.28 0.691666 158.247 1.175C159.23 1.65833 159.964 2.325 160.447 3.175C160.93 4.00833 161.172 4.94167 161.172 5.975C161.172 7.14167 160.839 8.18333 160.172 9.1C159.522 10.0167 158.555 10.6667 157.272 11.05L161.322 18H156.497ZM151.822 8.35H154.472C155.255 8.35 155.839 8.15833 156.222 7.775C156.622 7.39167 156.822 6.85 156.822 6.15C156.822 5.48333 156.622 4.95833 156.222 4.575C155.839 4.19167 155.255 4 154.472 4H151.822V8.35ZM170.206 18.175C168.922 18.175 167.772 17.9667 166.756 17.55C165.739 17.1333 164.922 16.5167 164.306 15.7C163.706 14.8833 163.389 13.9 163.356 12.75H167.906C167.972 13.4 168.197 13.9 168.581 14.25C168.964 14.5833 169.464 14.75 170.081 14.75C170.714 14.75 171.214 14.6083 171.581 14.325C171.947 14.025 172.131 13.6167 172.131 13.1C172.131 12.6667 171.981 12.3083 171.681 12.025C171.397 11.7417 171.039 11.5083 170.606 11.325C170.189 11.1417 169.589 10.9333 168.806 10.7C167.672 10.35 166.747 10 166.031 9.65C165.314 9.3 164.697 8.78333 164.181 8.1C163.664 7.41667 163.406 6.525 163.406 5.425C163.406 3.79167 163.997 2.51667 165.181 1.6C166.364 0.666666 167.906 0.2 169.806 0.2C171.739 0.2 173.297 0.666666 174.481 1.6C175.664 2.51667 176.297 3.8 176.381 5.45H171.756C171.722 4.88333 171.514 4.44167 171.131 4.125C170.747 3.79167 170.256 3.625 169.656 3.625C169.139 3.625 168.722 3.76667 168.406 4.05C168.089 4.31667 167.931 4.70833 167.931 5.225C167.931 5.79167 168.197 6.23333 168.731 6.55C169.264 6.86667 170.097 7.20833 171.231 7.575C172.364 7.95833 173.281 8.325 173.981 8.675C174.697 9.025 175.314 9.53333 175.831 10.2C176.347 10.8667 176.606 11.725 176.606 12.775C176.606 13.775 176.347 14.6833 175.831 15.5C175.331 16.3167 174.597 16.9667 173.631 17.45C172.664 17.9333 171.522 18.175 170.206 18.175Z" fill="black"/>
</svg>
